<?xml version="1.0" encoding="UTF-8" standalone="no"?>
<!-- Created with Inkscape (http://www.inkscape.org/) -->
<svg
   xmlns:svg="http://www.w3.org/2000/svg"
   xmlns="http://www.w3.org/2000/svg"
   xmlns:xlink="http://www.w3.org/1999/xlink"
   version="1.0"
   width="770"
   height="130"
   id="svg2">
  <defs
     id="defs4" />
  <path
     d="M 86.8277,76.316 C 90.6677,82.847 94.5047,89.371 98.4157,94.826 C 101.582,99.241 104.769,102.918 108.045,105.37 C 110.919,107.521 113.785,108.672 116.714,108.672 C 119.643,108.672 122.509,107.521 125.383,105.37 C 128.659,102.918 131.846,99.242 135.011,94.827 C 138.922,89.373 142.759,82.847 146.6,76.316"
     id="path3276"
     style="fill:#06fd24;fill-opacity:1;stroke:#000000;stroke-width:2;stroke-linecap:butt;stroke-miterlimit:4;stroke-dasharray:none" />
  <g
     transform="translate(-20.5723,-256.046)"
     id="g5764">
    <path
       d="M 47.6142,332.348 C 51.4544,325.817 55.2913,319.293 59.202,313.838 C 62.3675,309.423 65.5554,305.746 68.8313,303.294 C 71.7052,301.143 74.5712,299.992 77.5,299.992 C 80.4288,299.992 83.2952,301.143 86.1694,303.294 C 89.4448,305.746 92.632,309.422 95.7969,313.837 C 99.7081,319.291 103.545,325.817 107.386,332.348 M 167.2,332.362 C 171.04,325.831 174.877,319.307 178.788,313.852 C 181.954,309.437 185.141,305.76 188.417,303.308 C 191.291,301.157 194.157,300.006 197.086,300.006 C 200.015,300.006 202.881,301.157 205.755,303.308 C 209.031,305.76 212.218,309.436 215.383,313.851 C 219.294,319.305 223.131,325.831 226.972,332.362"
       id="sine-curve"
       style="fill:#06fd24;fill-opacity:1;stroke:#000000;stroke-width:2;stroke-linecap:butt;stroke-miterlimit:4;stroke-dasharray:none" />
    <path
       d="M 32.5,332.362 L 240.5,332.362 M 47.5,347.362 L 47.5,267.362 M 42.5,275.862 L 47.5,265.862 L 52.5,275.862 M 231.8,327.362 L 241.8,332.362 L 231.8,337.362"
       id="path3274"
       style="fill:none;fill-rule:evenodd;stroke:#000000;stroke-width:1.5;stroke-linecap:butt;stroke-linejoin:miter;stroke-miterlimit:4;stroke-dasharray:none;stroke-opacity:1" />
    <path
       d="M 35.9375,258.046 L 37.832,258.046 L 37.832,266.317 C 37.832,267.756 37.6693,268.899 37.3438,269.745 C 37.0182,270.591 36.4307,271.28 35.5811,271.81 C 34.7314,272.341 33.6165,272.606 32.2363,272.606 C 30.8952,272.606 29.7982,272.375 28.9453,271.913 C 28.0924,271.451 27.4837,270.782 27.1191,269.906 C 26.7546,269.03 26.5723,267.834 26.5723,266.317 L 26.5723,258.046 L 28.4668,258.046 L 28.4668,266.307 C 28.4668,267.551 28.5824,268.467 28.8135,269.057 C 29.0446,269.646 29.4417,270.1 30.0049,270.419 C 30.568,270.738 31.2565,270.897 32.0703,270.897 C 33.4635,270.897 34.4564,270.582 35.0488,269.95 C 35.6413,269.319 35.9375,268.104 35.9375,266.307 L 35.9375,258.046 z M 240.156,353.29 L 240.41,354.843 C 239.915,354.947 239.473,354.999 239.082,354.999 C 238.444,354.999 237.949,354.898 237.598,354.696 C 237.246,354.494 236.999,354.229 236.855,353.9 C 236.712,353.571 236.641,352.88 236.641,351.825 L 236.641,345.858 L 235.352,345.858 L 235.352,344.491 L 236.641,344.491 L 236.641,341.923 L 238.389,340.868 L 238.389,344.491 L 240.156,344.491 L 240.156,345.858 L 238.389,345.858 L 238.389,351.923 C 238.389,352.424 238.42,352.746 238.481,352.89 C 238.543,353.033 238.644,353.147 238.784,353.231 C 238.924,353.316 239.124,353.358 239.385,353.358 C 239.58,353.358 239.837,353.335 240.156,353.29 L 240.156,353.29 z"
       id="text4060"
       style="font-size:20px;font-style:normal;font-weight:bold;fill:#000000;fill-opacity:1;stroke:none;stroke-width:1px;stroke-linecap:butt;stroke-linejoin:miter;stroke-opacity:1;font-family:Bitstream Vera Sans" />
  </g>
  <path
     d="M 310.906,42.15 L 310.688,113.009"
     id="path3914"
     style="fill:none;fill-opacity:0.75;fill-rule:evenodd;stroke:#000000;stroke-width:5.200002;stroke-linecap:butt;stroke-linejoin:miter;stroke-miterlimit:4;stroke-dasharray:none;stroke-dashoffset:0;stroke-opacity:1;display:inline" />
  <path
     d="M 415.971,68.009 L 415.971,53.693 L 420.903,53.693 C 422.016,53.693 422.865,53.761 423.451,53.898 C 424.272,54.087 424.972,54.428 425.551,54.923 C 426.306,55.561 426.871,56.377 427.245,57.37 C 427.62,58.362 427.807,59.497 427.807,60.773 C 427.807,61.86 427.68,62.824 427.426,63.663 C 427.172,64.503 426.847,65.198 426.449,65.748 C 426.052,66.299 425.618,66.732 425.146,67.047 C 424.674,67.363 424.104,67.602 423.437,67.765 C 422.769,67.928 422.003,68.009 421.137,68.009 L 415.971,68.009 z M 417.866,66.32 L 420.922,66.32 C 421.866,66.32 422.607,66.232 423.144,66.056 C 423.681,65.88 424.109,65.633 424.428,65.314 C 424.877,64.865 425.227,64.261 425.478,63.502 C 425.728,62.744 425.854,61.824 425.854,60.744 C 425.854,59.246 425.608,58.095 425.116,57.291 C 424.625,56.487 424.028,55.949 423.324,55.675 C 422.817,55.48 422,55.382 420.873,55.382 L 417.866,55.382 L 417.866,66.32 z M 516,83.009 L 516,68.693 L 522.348,68.693 C 523.624,68.693 524.594,68.821 525.258,69.079 C 525.922,69.336 526.453,69.79 526.85,70.441 C 527.247,71.092 527.446,71.811 527.446,72.599 C 527.446,73.615 527.117,74.471 526.459,75.167 C 525.802,75.864 524.786,76.307 523.412,76.496 C 523.914,76.736 524.295,76.974 524.555,77.208 C 525.108,77.716 525.632,78.351 526.127,79.113 L 528.617,83.009 L 526.235,83.009 L 524.34,80.031 C 523.787,79.171 523.331,78.514 522.973,78.058 C 522.615,77.602 522.294,77.283 522.011,77.101 C 521.728,76.919 521.44,76.792 521.147,76.72 C 520.932,76.675 520.58,76.652 520.092,76.652 L 517.895,76.652 L 517.895,83.009 L 516,83.009 z M 517.895,75.011 L 521.967,75.011 C 522.833,75.011 523.51,74.922 523.998,74.743 C 524.487,74.564 524.858,74.277 525.112,73.883 C 525.365,73.489 525.492,73.061 525.492,72.599 C 525.492,71.922 525.247,71.365 524.755,70.929 C 524.264,70.493 523.487,70.275 522.426,70.275 L 517.895,70.275 L 517.895,75.011 z"
     id="text5604"
     style="font-size:20px;font-style:normal;font-weight:bold;fill:#000000;fill-opacity:1;stroke:none;stroke-width:1px;stroke-linecap:butt;stroke-linejoin:miter;stroke-opacity:1;font-family:Bitstream Vera Sans" />
  <path
     d="M 289.428,120.509 L 289.428,113.009 C 305.827,112.967 305.827,98.815 289.428,98.836 C 305.827,98.815 305.769,84.621 289.428,84.663 C 305.885,84.662 305.885,70.447 289.428,70.489 C 305.769,70.49 305.827,56.358 289.428,56.337 C 305.827,56.274 289.428,56.316 289.428,56.316 C 305.827,56.274 305.827,42.143 289.428,42.143 L 289.428,33.009 M 331.928,120.509 L 331.948,113.009 C 315.549,112.967 315.549,98.815 331.948,98.836 C 315.549,98.815 315.607,84.621 331.948,84.663 C 315.49,84.662 315.49,70.447 331.948,70.489 C 315.607,70.49 315.549,56.358 331.948,56.337 C 315.549,56.274 331.948,56.316 331.948,56.316 C 315.549,56.274 315.549,42.143 331.948,42.143 L 331.928,33.009 M 366.928,33.009 L 412.755,33.009 M 430.255,33.009 L 466.928,33.009 M 430.255,33.009 L 412.755,43.009 L 412.755,23.009 L 430.255,33.009 z M 430.255,23.009 L 430.255,43.009 M 499.428,33.009 L 499.428,59.04 M 499.428,94.473 L 499.428,120.509 M 506.515,59.04 L 506.515,94.473 L 492.342,94.473 L 492.342,59.04 L 506.515,59.04 z M 289.428,33.009 L 266.928,33.009 M 257.855,36.865 C 259.96,38.97 263.397,38.951 265.527,36.822 C 267.656,34.693 267.675,31.256 265.569,29.15 C 263.463,27.045 260.026,27.063 257.897,29.193 C 255.768,31.322 255.749,34.759 257.855,36.865 z M 289.428,120.509 L 266.928,120.509 M 257.855,124.365 C 259.96,126.47 263.397,126.451 265.527,124.322 C 267.656,122.193 267.675,118.756 265.569,116.65 C 263.463,114.545 260.026,114.563 257.897,116.693 C 255.768,118.822 255.749,122.259 257.855,124.365 z M 331.928,33.009 L 354.428,33.009 M 363.501,36.865 C 361.396,38.97 357.959,38.951 355.829,36.822 C 353.7,34.693 353.681,31.256 355.787,29.15 C 357.893,27.045 361.33,27.063 363.459,29.193 C 365.588,31.322 365.607,34.759 363.501,36.865 z M 331.928,120.509 L 354.428,120.509 M 363.501,124.365 C 361.396,126.47 357.959,126.451 355.829,124.322 C 353.7,122.193 353.681,118.756 355.787,116.65 C 357.893,114.545 361.33,114.563 363.459,116.693 C 365.588,118.822 365.607,122.259 363.501,124.365 z M 499.428,33.009 L 478.568,33.009 M 469.495,36.865 C 471.6,38.97 475.037,38.951 477.167,36.822 C 479.296,34.693 479.315,31.256 477.209,29.15 C 475.103,27.045 471.666,27.063 469.537,29.193 C 467.408,31.322 467.389,34.759 469.495,36.865 z M 499.428,120.509 L 478.568,120.509 M 469.495,124.365 C 471.6,126.47 475.037,126.451 477.167,124.322 C 479.296,122.193 479.315,118.756 477.209,116.65 C 475.103,114.545 471.666,114.563 469.537,116.693 C 467.408,118.822 467.389,122.259 469.495,124.365 z M 364.428,120.509 L 466.928,120.509"
     id="path3926"
     style="fill:none;fill-opacity:0.75;fill-rule:evenodd;stroke:#000000;stroke-width:2;stroke-linecap:square;stroke-linejoin:round;stroke-miterlimit:4;stroke-dasharray:none;stroke-opacity:1;display:inline" />
  <use
     transform="translate(542.5,1.8e-4)"
     id="use5769"
     x="0"
     y="0"
     width="744.094"
     height="1052.36"
     xlink:href="#g5764" />
</svg>
